# xmcd
#
# Track frame offsets:
#	150
#	14125
#	31147
#	47366
#	63867
#	78628
#	97423
#	115244
#	135230
#	151598
#	165070
#	181853
#	198252
#	218993
#	232059
#	247678
#	262686
#	276912
#	292559
#	305330
#	318898
#
# Disc length: 4441 seconds
#
# Revision: 0
# Processed by: cddbd v1.5.1PL2 Copyright (c) Steve Scherf et al.
# Submitted via: audiograbber 1.83.01
#
DISCID=05115715
DTITLE=Diverse - The Dome Summer 2006 Cd II
DYEAR=1900
DGENRE=
TTITLE0=Jonathan Walter - Es Ist Warm
TTITLE1=Pohlmann. - Wenn Jetzt Sommer Wär
TTITLE2=Put Your Records On - Put Your Records On
TTITLE3=Corinne Bailey Rae - Iris
TTITLE4=Katie Mellia - Nine Million Bicycles
TTITLE5=Karmah - Tom's Diner
TTITLE6=Mattafix - Big City Life
TTITLE7=Coldplay - The Hardest Part
TTITLE8=Lafee - Prinzesschen
TTITLE9=Killerpilze - Springt Hoch
TTITLE10=Depeche Mode - John The Revelator
TTITLE11=Klee  - Die Stadt
TTITLE12=Marc Terenzi - Lonely
TTITLE13=Groove Coverage - 21st Century Digital Girl
TTITLE14=Mylo and Miami Sound Machine - Doctor Pressure
TTITLE15=The Disco Boys - Hey St. Peter
TTITLE16=Meck Fest. Led Saver - Thunder In My  Heart Again
TTITLE17=Trick and Kubic Feat. Valeska - Easy
TTITLE18=Beat Freakz - Somebody's Watching Me
TTITLE19=Logo Logo - Mosquito
TTITLE20=Hot Banditoz - La Cucaracha Dance
EXTD=
EXTT0=
EXTT1=
EXTT2=
EXTT3=
EXTT4=
EXTT5=
EXTT6=
EXTT7=
EXTT8=
EXTT9=
EXTT10=
EXTT11=
EXTT12=
EXTT13=
EXTT14=
EXTT15=
EXTT16=
EXTT17=
EXTT18=
EXTT19=
EXTT20=
PLAYORDER=
